<svg width="33" height="32" viewBox="0 0 33 32" fill="none" xmlns="http://www.w3.org/2000/svg">
<g clip-path="url(#clip0_910_414)">
<path d="M12.6624 23.9199C10.4346 23.9199 8.62207 25.7324 8.62207 27.9603C8.62207 30.1881 10.4346 32.0006 12.6624 32.0006C14.8903 32.0006 16.7028 30.1881 16.7028 27.9603C16.7028 25.7324 14.8902 23.9199 12.6624 23.9199ZM12.6624 29.5764C11.7711 29.5764 11.0463 28.8516 11.0463 27.9603C11.0463 27.069 11.7711 26.3442 12.6624 26.3442C13.5533 26.3442 14.2786 27.069 14.2786 27.9603C14.2786 28.8515 13.5538 29.5764 12.6624 29.5764Z" fill="white"/>
<path d="M24.6215 23.9199C22.3936 23.9199 20.5811 25.7324 20.5811 27.9603C20.5811 30.1881 22.3936 32.0006 24.6215 32.0006C26.8493 32.0006 28.6618 30.1881 28.6618 27.9603C28.6618 25.7324 26.8493 23.9199 24.6215 23.9199ZM24.6215 29.5764C23.7302 29.5764 23.0054 28.8516 23.0054 27.9603C23.0054 27.069 23.7302 26.3442 24.6215 26.3442C25.5128 26.3442 26.2376 27.069 26.2376 27.9603C26.2376 28.8515 25.5128 29.5764 24.6215 29.5764Z" fill="white"/>
<path d="M31.6306 7.89211C31.4003 7.60279 31.0513 7.43436 30.682 7.43436H9.45814L8.35634 1.86594C8.25977 1.37826 7.87515 0.998883 7.38584 0.909196L2.53742 0.0203247C1.87767 -0.1013 1.24737 0.335511 1.12656 0.994071C1.00574 1.65263 1.44168 2.28413 2.1003 2.40494L6.13822 3.14512L9.69533 21.1242C9.80764 21.6919 10.3058 22.1012 10.8843 22.1012H27.8538C28.4182 22.1012 28.9075 21.7121 29.0348 21.1614L31.863 8.91916C31.9462 8.55917 31.8606 8.18098 31.6306 7.89211ZM26.8897 19.677H11.8798L9.9377 9.85897H29.1575L26.8897 19.677Z" fill="white"/>
</g>
<defs>
<clipPath id="clip0_910_414">
<rect width="32" height="32" fill="white" transform="translate(0.5)"/>
</clipPath>
</defs>
</svg>
