<svg width="171" height="48" viewBox="0 0 171 48" fill="none" xmlns="http://www.w3.org/2000/svg">
<path d="M27.9365 11.9175C22.5159 12.6142 11.0932 9.61563 10.3965 4.19482L10.3163 4.20514C10.8738 8.5437 13.1321 12.483 16.5941 15.1566C20.0562 17.8302 24.4385 19.019 28.7771 18.4616C31.3802 18.127 34.0098 18.8402 36.0872 20.4443C38.1646 22.0484 39.5194 24.4121 39.854 27.0152C40.1892 29.6182 39.4764 32.2481 37.8727 34.3256C36.2689 36.4034 33.9055 37.7587 31.3025 38.0939C28.6992 38.4289 26.0696 37.7161 23.9919 36.1124C21.9143 34.5086 20.5588 32.1452 20.2237 29.5422C19.9476 27.3938 19.251 25.321 18.1737 23.4419C17.0964 21.5629 15.6596 19.9143 13.9452 18.5906C12.2308 17.2668 10.2726 16.2936 8.18213 15.7267C6.09168 15.1597 3.91001 15.0101 1.76172 15.2863L1.77195 15.3659C7.19174 14.6693 12.9808 24.9578 13.6797 30.3791L13.6786 30.3792C14.0945 33.6148 15.4604 36.6543 17.6036 39.1135C19.7469 41.5727 22.5712 43.3412 25.7195 44.1952C28.8679 45.0493 32.1988 44.9507 35.291 43.9116C38.3832 42.8727 41.0979 40.9401 43.0919 38.3584C45.0856 35.7765 46.2692 32.6615 46.4928 29.4069C46.7164 26.1525 45.9697 22.905 44.3476 20.0748C42.7254 17.2446 40.3004 14.9591 37.3793 13.5071C34.458 12.0551 31.1719 11.502 27.9365 11.9175Z" fill="url(#paint0_linear_910_408)"/>
<path d="M58.2868 14.0957V32.9999H54.4951V14.0957H58.2868ZM70.3476 17.7791C72.1351 17.7791 73.5795 18.3478 74.6809 19.4853C75.7823 20.6048 76.333 22.1756 76.333 24.1978V32.9999H72.5413V24.7124C72.5413 23.5207 72.2434 22.6089 71.6476 21.977C71.0517 21.327 70.2392 21.002 69.2101 21.002C68.1628 21.002 67.3323 21.327 66.7184 21.977C66.1226 22.6089 65.8247 23.5207 65.8247 24.7124V32.9999H62.033V17.9957H65.8247V19.8645C66.3302 19.2145 66.9712 18.7089 67.7476 18.3478C68.542 17.9686 69.4087 17.7791 70.3476 17.7791ZM86.8178 21.1103H84.1907V32.9999H80.3449V21.1103H78.6387V17.9957H80.3449V17.2374C80.3449 15.3957 80.8685 14.0416 81.9157 13.1749C82.963 12.3082 84.5428 11.902 86.6553 11.9562V15.152C85.7345 15.1339 85.0935 15.2874 84.7324 15.6124C84.3713 15.9374 84.1907 16.5242 84.1907 17.3728V17.9957H86.8178V21.1103ZM91.1979 16.2082C90.5299 16.2082 89.9701 16.0006 89.5188 15.5853C89.0854 15.152 88.8688 14.6193 88.8688 13.9874C88.8688 13.3555 89.0854 12.8318 89.5188 12.4166C89.9701 11.9832 90.5299 11.7666 91.1979 11.7666C91.866 11.7666 92.4167 11.9832 92.85 12.4166C93.3014 12.8318 93.5271 13.3555 93.5271 13.9874C93.5271 14.6193 93.3014 15.152 92.85 15.5853C92.4167 16.0006 91.866 16.2082 91.1979 16.2082ZM93.0667 17.9957V32.9999H89.275V17.9957H93.0667ZM105.128 17.7791C106.915 17.7791 108.36 18.3478 109.461 19.4853C110.563 20.6048 111.113 22.1756 111.113 24.1978V32.9999H107.322V24.7124C107.322 23.5207 107.024 22.6089 106.428 21.977C105.832 21.327 105.02 21.002 103.99 21.002C102.943 21.002 102.113 21.327 101.499 21.977C100.903 22.6089 100.605 23.5207 100.605 24.7124V32.9999H96.8129V17.9957H100.605V19.8645C101.11 19.2145 101.751 18.7089 102.528 18.3478C103.322 17.9686 104.189 17.7791 105.128 17.7791ZM116.642 16.2082C115.974 16.2082 115.414 16.0006 114.963 15.5853C114.529 15.152 114.313 14.6193 114.313 13.9874C114.313 13.3555 114.529 12.8318 114.963 12.4166C115.414 11.9832 115.974 11.7666 116.642 11.7666C117.31 11.7666 117.861 11.9832 118.294 12.4166C118.745 12.8318 118.971 13.3555 118.971 13.9874C118.971 14.6193 118.745 15.152 118.294 15.5853C117.861 16.0006 117.31 16.2082 116.642 16.2082ZM118.511 17.9957V32.9999H114.719V17.9957H118.511ZM125.723 29.8853H132.413V32.9999H121.417V29.9395L127.971 21.1103H121.444V17.9957H132.332V21.0562L125.723 29.8853ZM134.374 25.4436C134.374 23.927 134.672 22.5818 135.268 21.4082C135.881 20.2346 136.703 19.3318 137.732 18.6999C138.779 18.068 139.944 17.752 141.226 17.752C142.345 17.752 143.32 17.9777 144.151 18.4291C145 18.8805 145.677 19.4492 146.182 20.1353V17.9957H150.001V32.9999H146.182V30.8062C145.695 31.5103 145.018 32.0971 144.151 32.5666C143.302 33.018 142.318 33.2437 141.199 33.2437C139.935 33.2437 138.779 32.9187 137.732 32.2687C136.703 31.6187 135.881 30.7068 135.268 29.5332C134.672 28.3416 134.374 26.9784 134.374 25.4436ZM146.182 25.4978C146.182 24.577 146.002 23.7916 145.64 23.1416C145.279 22.4735 144.792 21.968 144.178 21.6249C143.564 21.2638 142.905 21.0832 142.201 21.0832C141.497 21.0832 140.847 21.2548 140.251 21.5978C139.655 21.9409 139.168 22.4464 138.788 23.1145C138.427 23.7645 138.247 24.5409 138.247 25.4436C138.247 26.3464 138.427 27.1409 138.788 27.827C139.168 28.495 139.655 29.0096 140.251 29.3707C140.865 29.7318 141.515 29.9124 142.201 29.9124C142.905 29.9124 143.564 29.7409 144.178 29.3978C144.792 29.0367 145.279 28.5311 145.64 27.8811C146.002 27.2131 146.182 26.4187 146.182 25.4978ZM155.627 16.2082C154.959 16.2082 154.399 16.0006 153.948 15.5853C153.515 15.152 153.298 14.6193 153.298 13.9874C153.298 13.3555 153.515 12.8318 153.948 12.4166C154.399 11.9832 154.959 11.7666 155.627 11.7666C156.295 11.7666 156.846 11.9832 157.279 12.4166C157.731 12.8318 157.956 13.3555 157.956 13.9874C157.956 14.6193 157.731 15.152 157.279 15.5853C156.846 16.0006 156.295 16.2082 155.627 16.2082ZM157.496 17.9957V32.9999H153.704V17.9957H157.496Z" fill="white"/>
<path d="M169.998 26.4893H164.5V31.9871H169.998V26.4893Z" fill="#3BAAFB"/>
<defs>
<linearGradient id="paint0_linear_910_408" x1="16.8026" y1="9.70579" x2="49.7897" y2="47.6409" gradientUnits="userSpaceOnUse">
<stop stop-color="#57B8FF"/>
<stop offset="0.940625" stop-color="#038EF2"/>
<stop offset="1" stop-color="white" stop-opacity="0"/>
</linearGradient>
</defs>
</svg>
